<svg width="35" height="35" viewBox="0 0 35 35" fill="none" xmlns="http://www.w3.org/2000/svg">
<path fill-rule="evenodd" clip-rule="evenodd" d="M17.506 1.81641H17.355C16.05 1.81636 14.9618 1.81634 14.0979 1.93247C13.1861 2.05507 12.3629 2.32474 11.7014 2.98628C11.0398 3.64782 10.7701 4.47105 10.6475 5.38287C10.5314 6.24674 10.5314 7.33491 10.5315 8.63989V8.75279C7.59587 8.84884 5.83305 9.19187 4.60787 10.417C2.90625 12.1187 2.90625 14.8574 2.90625 20.3348C2.90625 25.8122 2.90625 28.5511 4.60787 30.2526C6.3095 31.9542 9.04821 31.9542 14.5257 31.9542H20.3354C25.8127 31.9542 28.5516 31.9542 30.2531 30.2526C31.9548 28.5511 31.9548 25.8122 31.9548 20.3348C31.9548 14.8574 31.9548 12.1187 30.2531 10.417C29.028 9.19187 27.2652 8.84884 24.3295 8.75279V8.63992C24.3295 7.33496 24.3297 6.24674 24.2135 5.38287C24.0909 4.47105 23.8212 3.64782 23.1596 2.98628C22.4982 2.32474 21.6749 2.05507 20.7631 1.93247C19.8992 1.81634 18.811 1.81636 17.506 1.81641ZM22.1509 8.71818V8.71543C22.1509 7.31528 22.1486 6.37475 22.0543 5.67318C21.9641 5.00293 21.8084 4.71609 21.6192 4.52681C21.4299 4.33753 21.1431 4.1818 20.4728 4.09169C19.7712 3.99737 18.8306 3.99505 17.4305 3.99505C16.0304 3.99505 15.0898 3.99737 14.3882 4.09169C13.718 4.1818 13.4312 4.33753 13.2419 4.52681C13.0526 4.71609 12.8969 5.00293 12.8068 5.67318C12.7124 6.37475 12.7101 7.31528 12.7101 8.71543V8.71818C13.2795 8.71543 13.8838 8.71543 14.5257 8.71543H20.3354C20.9772 8.71543 21.5815 8.71543 22.1509 8.71818ZM24.6926 13.0727C24.6926 13.8749 24.0424 14.5251 23.2402 14.5251C22.438 14.5251 21.7878 13.8749 21.7878 13.0727C21.7878 12.2706 22.438 11.6203 23.2402 11.6203C24.0424 11.6203 24.6926 12.2706 24.6926 13.0727ZM11.6208 14.5251C12.423 14.5251 13.0732 13.8749 13.0732 13.0727C13.0732 12.2706 12.423 11.6203 11.6208 11.6203C10.8187 11.6203 10.1684 12.2706 10.1684 13.0727C10.1684 13.8749 10.8187 14.5251 11.6208 14.5251Z" fill="#6B6084" fill-opacity="0.27"/>
<path d="M2.90625 17.4297H31.9548V18.5916H2.90625V17.4297Z" fill="white"/>
<path d="M15.1016 16.2656H19.7493V22.0753H15.1016V16.2656Z" fill="white"/>
<path d="M16.2695 18.5898H18.5945V20.9148H16.2695V18.5898Z" fill="#6B6084" fill-opacity="0.27"/>
</svg>
