<svg width="28" height="33" viewBox="0 0 28 33" fill="none" xmlns="http://www.w3.org/2000/svg">
<path d="M13.9457 2.32422C8.17061 2.32422 3.48828 7.00655 3.48828 12.7817C3.48828 15.0557 4.23381 17.1425 5.47302 18.8514C5.49524 18.8923 5.49873 18.9381 5.524 18.9773L12.4956 29.4348C12.819 29.9197 13.3636 30.2108 13.9457 30.2108C14.5279 30.2108 15.0725 29.9197 15.3959 29.4348L22.3675 18.9773C22.3932 18.9381 22.3963 18.8923 22.4185 18.8514C23.6577 17.1425 24.4032 15.0557 24.4032 12.7817C24.4032 7.00655 19.7209 2.32422 13.9457 2.32422ZM13.9457 16.2675C12.0207 16.2675 10.4599 14.7067 10.4599 12.7817C10.4599 10.8566 12.0207 9.29586 13.9457 9.29586C15.8708 9.29586 17.4316 10.8566 17.4316 12.7817C17.4316 14.7067 15.8708 16.2675 13.9457 16.2675Z" fill="#6B6084" fill-opacity="0.27"/>
</svg>
