<svg width="28" height="28" viewBox="0 0 28 28" fill="none" xmlns="http://www.w3.org/2000/svg">
<path d="M24.4011 9.29586H18.5914V3.48616C18.5914 3.17799 18.469 2.88245 18.2511 2.66454C18.0332 2.44664 17.7376 2.32422 17.4294 2.32422H10.4578C10.1496 2.32422 9.85409 2.44664 9.63619 2.66454C9.41828 2.88245 9.29586 3.17799 9.29586 3.48616V9.29586H3.48616C3.17799 9.29586 2.88245 9.41828 2.66454 9.63619C2.44664 9.85409 2.32422 10.1496 2.32422 10.4578V25.563H12.7817V22.0772C12.7817 21.769 12.9041 21.4735 13.122 21.2556C13.3399 21.0377 13.6355 20.9153 13.9436 20.9153C14.2518 20.9153 14.5473 21.0377 14.7652 21.2556C14.9831 21.4735 15.1056 21.769 15.1056 22.0772V25.563H25.563V10.4578C25.563 10.1496 25.4406 9.85409 25.2227 9.63619C25.0048 9.41828 24.7093 9.29586 24.4011 9.29586ZM6.97198 23.2392H4.6481V20.9153H6.97198V23.2392ZM6.97198 18.5914H4.6481V16.2675H6.97198V18.5914ZM6.97198 13.9436H4.6481V11.6197H6.97198V13.9436ZM15.1056 17.4294H12.7817V15.1056H15.1056V17.4294ZM15.1056 12.7817H12.7817V10.4578H15.1056V12.7817ZM15.1056 8.13392H12.7817V5.81004H15.1056V8.13392ZM23.2392 23.2392H20.9153V20.9153H23.2392V23.2392ZM23.2392 18.5914H20.9153V16.2675H23.2392V18.5914ZM23.2392 13.9436H20.9153V11.6197H23.2392V13.9436Z" fill="#6B6084" fill-opacity="0.27"/>
</svg>
