<svg width="35" height="35" viewBox="0 0 35 35" fill="none" xmlns="http://www.w3.org/2000/svg">
<rect x="2.90625" y="5.23047" width="28.4676" height="24.4008" rx="6.39067" fill="#6B6084" fill-opacity="0.27"/>
<path d="M27.5977 17.4297C27.5977 18.2323 26.9471 18.8828 26.1445 18.8828C25.342 18.8828 24.6914 18.2323 24.6914 17.4297C24.6914 16.6271 25.342 15.9766 26.1445 15.9766C26.9471 15.9766 27.5977 16.6271 27.5977 17.4297Z" fill="white"/>
<path fill-rule="evenodd" clip-rule="evenodd" d="M14.4432 4.71875H18.9643C21.6336 4.71872 23.7477 4.71871 25.4024 4.94118C27.1052 5.17011 28.4835 5.65249 29.5705 6.73942C30.913 8.08203 31.3409 9.88014 31.4963 12.2134C32.3346 12.5823 32.9677 13.3626 33.0375 14.3509C33.0437 14.4384 33.0436 14.5326 33.0436 14.6199C33.0436 14.6279 33.0436 14.6358 33.0436 14.6436V20.2113C33.0436 20.2192 33.0436 20.227 33.0436 20.235C33.0436 20.3223 33.0437 20.4166 33.0375 20.504C32.9677 21.4924 32.3346 22.2726 31.4963 22.6415C31.3409 24.9749 30.913 26.773 29.5705 28.1156C28.4835 29.2024 27.1052 29.6848 25.4024 29.9138C23.7477 30.1362 21.6336 30.1362 18.9643 30.1362H14.4432C11.774 30.1362 9.65978 30.1362 8.00517 29.9138C6.30231 29.6848 4.92403 29.2024 3.83708 28.1156C2.75014 27.0286 2.26776 25.6502 2.03883 23.9474C1.81636 22.2928 1.81638 20.1787 1.81641 17.5094V17.3456C1.81638 14.6763 1.81636 12.5621 2.03883 10.9075C2.26776 9.20466 2.75014 7.82638 3.83708 6.73942C4.92403 5.65249 6.30231 5.17011 8.00517 4.94118C9.65978 4.71871 11.774 4.71872 14.4432 4.71875ZM29.2933 22.8741H26.4798C23.364 22.8741 20.6979 20.5101 20.6979 17.4275C20.6979 14.3448 23.364 11.9809 26.4798 11.9809H29.2933C29.128 10.0325 28.754 9.00403 28.0299 8.27995C27.4153 7.66527 26.5733 7.29684 25.1122 7.10038C23.6195 6.8997 21.6519 6.89739 18.8824 6.89739H14.5251C11.7556 6.89739 9.78806 6.8997 8.29546 7.10038C6.83419 7.29684 5.99229 7.66527 5.37761 8.27995C4.76293 8.89464 4.39449 9.73653 4.19804 11.1978C3.99736 12.6904 3.99505 14.658 3.99505 17.4275C3.99505 20.197 3.99736 22.1646 4.19804 23.6572C4.39449 25.1184 4.76293 25.9603 5.37761 26.575C5.99229 27.1897 6.83419 27.5581 8.29546 27.7545C9.78806 27.9552 11.7556 27.9576 14.5251 27.9576H18.8824C21.6519 27.9576 23.6195 27.9552 25.1122 27.7545C26.5733 27.5581 27.4153 27.1897 28.0299 26.575C28.754 25.851 29.128 24.8225 29.2933 22.8741ZM7.62611 11.6178C7.62611 11.0162 8.11382 10.5285 8.71543 10.5285H14.5251C15.1267 10.5285 15.6145 11.0162 15.6145 11.6178C15.6145 12.2194 15.1267 12.7071 14.5251 12.7071H8.71543C8.11382 12.7071 7.62611 12.2194 7.62611 11.6178ZM30.3907 14.1599C30.3612 14.1595 30.3226 14.1595 30.2597 14.1595H26.4798C24.4124 14.1595 22.8766 15.6972 22.8766 17.4275C22.8766 19.1578 24.4124 20.6954 26.4798 20.6954H30.2597C30.3226 20.6954 30.3612 20.6954 30.3907 20.6951C30.4089 20.6949 30.4184 20.6947 30.423 20.6944L30.4261 20.6943C30.7256 20.6761 30.8543 20.4741 30.8642 20.3525C30.8642 20.3525 30.8645 20.3434 30.8646 20.3303C30.8649 20.3044 30.8649 20.2702 30.8649 20.2113V14.6436C30.8649 14.5848 30.8649 14.5505 30.8646 14.5247C30.8645 14.5116 30.8642 14.5024 30.8642 14.5024C30.8543 14.3809 30.7256 14.1788 30.4261 14.1606C30.4261 14.1606 30.419 14.1601 30.3907 14.1599Z" fill="white"/>
</svg>
